<svg id="_1078011" data-name="1078011" xmlns="http://www.w3.org/2000/svg" width="50" height="44.94" viewBox="0 0 50 44.94">
  <metadata><?xpacket begin="﻿" id="W5M0MpCehiHzreSzNTczkc9d"?>
<x:xmpmeta xmlns:x="adobe:ns:meta/" x:xmptk="Adobe XMP Core 5.6-c138 79.159824, 2016/09/14-01:09:01        ">
   <rdf:RDF xmlns:rdf="http://www.w3.org/1999/02/22-rdf-syntax-ns#">
      <rdf:Description rdf:about=""/>
   </rdf:RDF>
</x:xmpmeta>
                                                                                                    
                                                                                                    
                                                                                                    
                                                                                                    
                                                                                                    
                                                                                                    
                                                                                                    
                                                                                                    
                                                                                                    
                                                                                                    
                                                                                                    
                                                                                                    
                                                                                                    
                                                                                                    
                                                                                                    
                                                                                                    
                                                                                                    
                                                                                                    
                                                                                                    
                                                                                                    
                           
<?xpacket end="w"?></metadata>
<defs>
    <style>
      .cls-1, .cls-2 {
        fill: #fde428;
      }

      .cls-1 {
        fill-rule: evenodd;
      }
    </style>
  </defs>
  <path id="Path_2631" data-name="Path 2631" class="cls-1" d="M430,2366.77a0.975,0.975,0,1,0,.976.97A0.971,0.971,0,0,0,430,2366.77Z" transform="translate(-405 -2357)"/>
  <circle id="Path_2632" data-name="Path 2632" class="cls-2" cx="8.781" cy="26.375" r="0.969"/>
  <path id="Path_2633" data-name="Path 2633" class="cls-1" d="M437.812,2357c-8.791,0-16.007,6.06-16.565,13.7-8.373.42-16.247,6.45-16.247,14.62a13.65,13.65,0,0,0,3.809,9.34,5.956,5.956,0,0,1-1.57,5.6,0.965,0.965,0,0,0-.212,1.06,0.981,0.981,0,0,0,.9.6,10.784,10.784,0,0,0,7.463-3.01,22.325,22.325,0,0,0,6.794,1.06c8.791,0,16.006-6.06,16.566-13.69a22.065,22.065,0,0,0,5.854-1.05,10.75,10.75,0,0,0,7.463,3.02,0.978,0.978,0,0,0,.691-1.67,5.928,5.928,0,0,1-1.57-5.59,13.65,13.65,0,0,0,3.809-9.34C455,2363.16,446.52,2357,437.812,2357Zm-15.625,41.02a19.736,19.736,0,0,1-6.69-1.16,0.977,0.977,0,0,0-1.082.25,8.778,8.778,0,0,1-4.383,2.6,7.887,7.887,0,0,0,.6-5.81,0.9,0.9,0,0,0-.239-0.41,11.746,11.746,0,0,1-3.436-8.17c0-6.88,6.976-12.69,15.234-12.69,7.8,0,14.649,5.42,14.649,12.69C436.836,2392.32,430.265,2398.02,422.187,2398.02Zm27.424-18.2a0.9,0.9,0,0,0-.239.41,7.887,7.887,0,0,0,.6,5.81,8.778,8.778,0,0,1-4.383-2.6,0.977,0.977,0,0,0-1.082-.25,19.085,19.085,0,0,1-5.753,1.13,13.991,13.991,0,0,0-5.277-9.74h12.738a0.975,0.975,0,1,0,0-1.95H430.473a18.226,18.226,0,0,0-7.268-1.93c0.561-6.56,6.9-11.75,14.607-11.75,8.259,0,15.235,5.82,15.235,12.7A11.768,11.768,0,0,1,449.611,2379.82Z" transform="translate(-405 -2357)"/>
  <path id="Path_2634" data-name="Path 2634" class="cls-1" d="M430,2382.39H417.7a0.975,0.975,0,1,0,0,1.95H430A0.975,0.975,0,1,0,430,2382.39Z" transform="translate(-405 -2357)"/>
  <path id="Path_2635" data-name="Path 2635" class="cls-1" d="M430,2388.25H413.789a0.975,0.975,0,1,0,0,1.95H430A0.975,0.975,0,1,0,430,2388.25Z" transform="translate(-405 -2357)"/>
  <path id="Path_2636" data-name="Path 2636" class="cls-1" d="M446.211,2366.77H433.906a0.975,0.975,0,1,0,0,1.95h12.305A0.975,0.975,0,1,0,446.211,2366.77Z" transform="translate(-405 -2357)"/>
</svg>
