<svg id="_126484" data-name="126484" xmlns="http://www.w3.org/2000/svg" width="30" height="30" viewBox="0 0 30 30">
  <metadata><?xpacket begin="﻿" id="W5M0MpCehiHzreSzNTczkc9d"?>
<x:xmpmeta xmlns:x="adobe:ns:meta/" x:xmptk="Adobe XMP Core 5.6-c138 79.159824, 2016/09/14-01:09:01        ">
   <rdf:RDF xmlns:rdf="http://www.w3.org/1999/02/22-rdf-syntax-ns#">
      <rdf:Description rdf:about=""/>
   </rdf:RDF>
</x:xmpmeta>
                                                                                                    
                                                                                                    
                                                                                                    
                                                                                                    
                                                                                                    
                                                                                                    
                                                                                                    
                                                                                                    
                                                                                                    
                                                                                                    
                                                                                                    
                                                                                                    
                                                                                                    
                                                                                                    
                                                                                                    
                                                                                                    
                                                                                                    
                                                                                                    
                                                                                                    
                                                                                                    
                           
<?xpacket end="w"?></metadata>
<defs>
    <style>
      .cls-1 {
        fill: #002e5b;
        fill-rule: evenodd;
      }
    </style>
  </defs>
  <g>
    <path id="Path_2611" data-name="Path 2611" class="cls-1" d="M1301.94,1536.76h-11.7v-11.69a0.837,0.837,0,0,0-.85-0.85,13.39,13.39,0,1,0,13.4,13.39A0.856,0.856,0,0,0,1301.94,1536.76Zm-12.55,12.54a11.69,11.69,0,0,1-.85-23.35v11.66a0.849,0.849,0,0,0,.85.85h11.66A11.7,11.7,0,0,1,1289.39,1549.3Z" transform="translate(-1276 -1521)"/>
    <path id="Path_2612" data-name="Path 2612" class="cls-1" d="M1306,1534.35a13.389,13.389,0,0,0-13.39-13.35,0.843,0.843,0,0,0-.85.85v12.54a0.843,0.843,0,0,0,.85.85h12.54a0.849,0.849,0,0,0,.85-0.85v-0.04Zm-12.54-.8v-10.81a11.7,11.7,0,0,1,10.81,10.81h-10.81Z" transform="translate(-1276 -1521)"/>
  </g>
</svg>
