<svg id="_2169842" data-name="2169842" xmlns="http://www.w3.org/2000/svg" width="30" height="25.28" viewBox="0 0 30 25.28">
  <metadata><?xpacket begin="﻿" id="W5M0MpCehiHzreSzNTczkc9d"?>
<x:xmpmeta xmlns:x="adobe:ns:meta/" x:xmptk="Adobe XMP Core 5.6-c138 79.159824, 2016/09/14-01:09:01        ">
   <rdf:RDF xmlns:rdf="http://www.w3.org/1999/02/22-rdf-syntax-ns#">
      <rdf:Description rdf:about=""/>
   </rdf:RDF>
</x:xmpmeta>
                                                                                                    
                                                                                                    
                                                                                                    
                                                                                                    
                                                                                                    
                                                                                                    
                                                                                                    
                                                                                                    
                                                                                                    
                                                                                                    
                                                                                                    
                                                                                                    
                                                                                                    
                                                                                                    
                                                                                                    
                                                                                                    
                                                                                                    
                                                                                                    
                                                                                                    
                                                                                                    
                           
<?xpacket end="w"?></metadata>
<defs>
    <style>
      .cls-1 {
        fill: #002e5b;
        fill-rule: evenodd;
      }
    </style>
  </defs>
  <path id="Path_2613" data-name="Path 2613" class="cls-1" d="M1019.55,1622.84a2.082,2.082,0,0,0-1.63-.78h-5.77l-3.14-7.17a0.873,0.873,0,0,0-1.15-.46,0.888,0.888,0,0,0-.46,1.16l2.83,6.47H999.772l2.828-6.47a0.888,0.888,0,0,0-.46-1.16,0.873,0.873,0,0,0-1.15.46l-3.136,7.17h-5.778a2.093,2.093,0,0,0-1.631.78,2.039,2.039,0,0,0-.393,1.73l3.085,13.47a2.061,2.061,0,0,0,2.024,1.6h19.679a2.058,2.058,0,0,0,2.02-1.6l3.09-13.47a2.036,2.036,0,0,0-.4-1.73h0Zm-4.71,15.04H995.161a0.318,0.318,0,0,1-.311-0.23l-3.085-13.48a0.27,0.27,0,0,1,.055-0.23,0.3,0.3,0,0,1,.256-0.12h5.01l-0.23.53a0.871,0.871,0,0,0,.453,1.15,0.861,0.861,0,0,0,1.157-.45l0.538-1.23h12l0.53,1.23a0.893,0.893,0,0,0,.81.53,0.888,0.888,0,0,0,.8-1.23l-0.23-.53h5.01a0.32,0.32,0,0,1,.26.12,0.246,0.246,0,0,1,.05.23l-3.08,13.48a0.315,0.315,0,0,1-.31.23h0Z" transform="translate(-990 -1614.34)"/>
  <path id="Path_2614" data-name="Path 2614" class="cls-1" d="M999.726,1627.63a0.876,0.876,0,0,0-.878.88v6.44a0.881,0.881,0,0,0,1.762,0v-6.44A0.882,0.882,0,0,0,999.726,1627.63Z" transform="translate(-990 -1614.34)"/>
  <path id="Path_2615" data-name="Path 2615" class="cls-1" d="M1005,1627.63a0.875,0.875,0,0,0-.88.88v6.44a0.88,0.88,0,1,0,1.76,0v-6.44A0.875,0.875,0,0,0,1005,1627.63Z" transform="translate(-990 -1614.34)"/>
  <path id="Path_2616" data-name="Path 2616" class="cls-1" d="M1010.27,1627.63a0.881,0.881,0,0,0-.88.88v6.44a0.88,0.88,0,1,0,1.76,0v-6.44A0.875,0.875,0,0,0,1010.27,1627.63Z" transform="translate(-990 -1614.34)"/>
</svg>
