<svg id="_3596830" data-name="3596830" xmlns="http://www.w3.org/2000/svg" width="50" height="50" viewBox="0 0 50 50">
  <metadata><?xpacket begin="﻿" id="W5M0MpCehiHzreSzNTczkc9d"?>
<x:xmpmeta xmlns:x="adobe:ns:meta/" x:xmptk="Adobe XMP Core 5.6-c138 79.159824, 2016/09/14-01:09:01        ">
   <rdf:RDF xmlns:rdf="http://www.w3.org/1999/02/22-rdf-syntax-ns#">
      <rdf:Description rdf:about=""/>
   </rdf:RDF>
</x:xmpmeta>
                                                                                                    
                                                                                                    
                                                                                                    
                                                                                                    
                                                                                                    
                                                                                                    
                                                                                                    
                                                                                                    
                                                                                                    
                                                                                                    
                                                                                                    
                                                                                                    
                                                                                                    
                                                                                                    
                                                                                                    
                                                                                                    
                                                                                                    
                                                                                                    
                                                                                                    
                                                                                                    
                           
<?xpacket end="w"?></metadata>
<defs>
    <style>
      .cls-1 {
        fill: #fde428;
        fill-rule: evenodd;
      }
    </style>
  </defs>
  <g>
    <path id="Path_2647" data-name="Path 2647" class="cls-1" d="M1207.71,2367.68a5.21,5.21,0,1,1,5.21-5.21A5.22,5.22,0,0,1,1207.71,2367.68Zm0-8.34a3.125,3.125,0,1,0,3.12,3.13A3.141,3.141,0,0,0,1207.71,2359.34Z" transform="translate(-1165 -2357.25)"/>
    <path id="Path_2648" data-name="Path 2648" class="cls-1" d="M1213.96,2369.76a1.044,1.044,0,0,1-.74-0.3l-3.12-3.13a1.039,1.039,0,0,1,1.47-1.47l3.12,3.12A1.04,1.04,0,0,1,1213.96,2369.76Z" transform="translate(-1165 -2357.25)"/>
  </g>
  <path id="Path_2649" data-name="Path 2649" class="cls-1" d="M1195.21,2369.76h-27.09a3.124,3.124,0,0,1-3.12-3.12v-6.25a3.126,3.126,0,0,1,3.12-3.13h27.09a3.126,3.126,0,0,1,3.12,3.13v6.25A3.124,3.124,0,0,1,1195.21,2369.76Zm-27.09-10.42a1.048,1.048,0,0,0-1.04,1.05v6.25a1.046,1.046,0,0,0,1.04,1.04h27.09a1.046,1.046,0,0,0,1.04-1.04v-6.25a1.048,1.048,0,0,0-1.04-1.05h-27.09Z" transform="translate(-1165 -2357.25)"/>
  <path id="Path_2650" data-name="Path 2650" class="cls-1" d="M1171.25,2388.51a6.25,6.25,0,1,1,6.25-6.25A6.252,6.252,0,0,1,1171.25,2388.51Zm0-10.42a4.17,4.17,0,1,0,4.17,4.17A4.174,4.174,0,0,0,1171.25,2378.09Z" transform="translate(-1165 -2357.25)"/>
  <path id="Path_2651" data-name="Path 2651" class="cls-1" d="M1171.25,2407.26a6.25,6.25,0,1,1,6.25-6.25A6.252,6.252,0,0,1,1171.25,2407.26Zm0-10.42a4.17,4.17,0,1,0,4.17,4.17A4.174,4.174,0,0,0,1171.25,2396.84Z" transform="translate(-1165 -2357.25)"/>
  <path id="Path_2652" data-name="Path 2652" class="cls-1" d="M1211.87,2407.26h-27.08a3.124,3.124,0,0,1-3.12-3.12v-25a3.126,3.126,0,0,1,3.12-3.13h27.08a3.128,3.128,0,0,1,3.13,3.13v25A3.126,3.126,0,0,1,1211.87,2407.26Zm-27.08-29.17a1.048,1.048,0,0,0-1.04,1.05v25a1.046,1.046,0,0,0,1.04,1.04h27.08a1.048,1.048,0,0,0,1.05-1.04v-25a1.05,1.05,0,0,0-1.05-1.05h-27.08Z" transform="translate(-1165 -2357.25)"/>
  <g>
    <path id="Path_2653" data-name="Path 2653" class="cls-1" d="M1198.33,2390.59a3.125,3.125,0,1,1,3.13-3.12A3.124,3.124,0,0,1,1198.33,2390.59Zm0-4.16a1.04,1.04,0,1,0,1.04,1.04A1.046,1.046,0,0,0,1198.33,2386.43Z" transform="translate(-1165 -2357.25)"/>
    <path id="Path_2654" data-name="Path 2654" class="cls-1" d="M1203.54,2398.93a1.046,1.046,0,0,1-1.04-1.04v-1.05a2.078,2.078,0,0,0-2.08-2.08h-4.17a2.078,2.078,0,0,0-2.08,2.08v1.05a1.045,1.045,0,0,1-2.09,0v-1.05a4.172,4.172,0,0,1,4.17-4.16h4.17a4.17,4.17,0,0,1,4.16,4.16v1.05A1.039,1.039,0,0,1,1203.54,2398.93Z" transform="translate(-1165 -2357.25)"/>
  </g>
</svg>
