<svg id="_4158488" data-name="4158488" xmlns="http://www.w3.org/2000/svg" width="50" height="50" viewBox="0 0 50 50">
  <metadata><?xpacket begin="﻿" id="W5M0MpCehiHzreSzNTczkc9d"?>
<x:xmpmeta xmlns:x="adobe:ns:meta/" x:xmptk="Adobe XMP Core 5.6-c138 79.159824, 2016/09/14-01:09:01        ">
   <rdf:RDF xmlns:rdf="http://www.w3.org/1999/02/22-rdf-syntax-ns#">
      <rdf:Description rdf:about=""/>
   </rdf:RDF>
</x:xmpmeta>
                                                                                                    
                                                                                                    
                                                                                                    
                                                                                                    
                                                                                                    
                                                                                                    
                                                                                                    
                                                                                                    
                                                                                                    
                                                                                                    
                                                                                                    
                                                                                                    
                                                                                                    
                                                                                                    
                                                                                                    
                                                                                                    
                                                                                                    
                                                                                                    
                                                                                                    
                                                                                                    
                           
<?xpacket end="w"?></metadata>
<defs>
    <style>
      .cls-1 {
        fill: #fde428;
        fill-rule: evenodd;
      }
    </style>
  </defs>
  <path id="Path_2637" data-name="Path 2637" class="cls-1" d="M822.925,2368.7a18.414,18.414,0,0,0-13.462-5.25,19.32,19.32,0,0,0-18.011,18.04,18.379,18.379,0,0,0,1.378,7.54,2.864,2.864,0,0,0,2.677,1.76H824.5a2.867,2.867,0,0,0,2.673-1.75A18.54,18.54,0,0,0,822.925,2368.7Zm2.438,19.59a0.924,0.924,0,0,1-.867.55H795.507a0.926,0.926,0,0,1-.87-0.55,16.434,16.434,0,0,1-1.232-6.75c0.222-8.21,7.9-15.9,16.114-16.13,0.162-.01.324-0.01,0.485-0.01a16.6,16.6,0,0,1,15.359,22.89h0Z" transform="translate(-785 -2357)"/>
  <path id="Path_2638" data-name="Path 2638" class="cls-1" d="M798.281,2381.02h-1.953a0.98,0.98,0,0,0,0,1.96h1.953A0.98,0.98,0,0,0,798.281,2381.02Z" transform="translate(-785 -2357)"/>
  <path id="Path_2639" data-name="Path 2639" class="cls-1" d="M820.742,2382a0.979,0.979,0,0,0,.977.98h1.953a0.98,0.98,0,0,0,0-1.96h-1.953A0.979,0.979,0,0,0,820.742,2382Z" transform="translate(-785 -2357)"/>
  <path id="Path_2640" data-name="Path 2640" class="cls-1" d="M810,2371.26a0.98,0.98,0,0,0,.977-0.98v-1.95a0.977,0.977,0,1,0-1.954,0v1.95A0.98,0.98,0,0,0,810,2371.26Z" transform="translate(-785 -2357)"/>
  <path id="Path_2641" data-name="Path 2641" class="cls-1" d="M804.01,2369.67a0.978,0.978,0,1,0-1.692.98l0.977,1.69a0.985,0.985,0,0,0,.847.49,0.96,0.96,0,0,0,.487-0.13,0.983,0.983,0,0,0,.357-1.34Z" transform="translate(-785 -2357)"/>
  <path id="Path_2642" data-name="Path 2642" class="cls-1" d="M800.339,2375.3l-1.691-.98a0.976,0.976,0,0,0-.976,1.69l1.691,0.98A0.976,0.976,0,0,0,800.339,2375.3Z" transform="translate(-785 -2357)"/>
  <path id="Path_2643" data-name="Path 2643" class="cls-1" d="M821.352,2374.32l-7.7,4.44a4.869,4.869,0,1,0,.979,1.69l7.7-4.44A0.976,0.976,0,0,0,821.352,2374.32ZM812.93,2382a2.928,2.928,0,1,1-1.028-2.23l-2.39,1.38a0.981,0.981,0,0,0,.489,1.83,1.065,1.065,0,0,0,.487-0.13l2.392-1.38A2.886,2.886,0,0,1,812.93,2382Z" transform="translate(-785 -2357)"/>
  <path id="Path_2644" data-name="Path 2644" class="cls-1" d="M815.371,2372.7a0.96,0.96,0,0,0,.487.13,0.985,0.985,0,0,0,.847-0.49l0.977-1.69a0.978,0.978,0,1,0-1.692-.98l-0.976,1.69A0.983,0.983,0,0,0,815.371,2372.7Z" transform="translate(-785 -2357)"/>
  <path id="Path_2645" data-name="Path 2645" class="cls-1" d="M813.906,2394.7h-7.812a2.93,2.93,0,0,0,0,5.86h7.812A2.93,2.93,0,0,0,813.906,2394.7Z" transform="translate(-785 -2357)"/>
  <path id="Path_2646" data-name="Path 2646" class="cls-1" d="M827.678,2364.32A25.006,25.006,0,1,0,835,2382a24.842,24.842,0,0,0-7.322-17.68h0ZM826.3,2398.3a23.056,23.056,0,1,1,6.75-16.3,22.909,22.909,0,0,1-6.75,16.3h0Z" transform="translate(-785 -2357)"/>
</svg>
