<svg id="_4290984" data-name="4290984" xmlns="http://www.w3.org/2000/svg" width="30" height="30" viewBox="0 0 30 30">
  <metadata><?xpacket begin="﻿" id="W5M0MpCehiHzreSzNTczkc9d"?>
<x:xmpmeta xmlns:x="adobe:ns:meta/" x:xmptk="Adobe XMP Core 5.6-c138 79.159824, 2016/09/14-01:09:01        ">
   <rdf:RDF xmlns:rdf="http://www.w3.org/1999/02/22-rdf-syntax-ns#">
      <rdf:Description rdf:about=""/>
   </rdf:RDF>
</x:xmpmeta>
                                                                                                    
                                                                                                    
                                                                                                    
                                                                                                    
                                                                                                    
                                                                                                    
                                                                                                    
                                                                                                    
                                                                                                    
                                                                                                    
                                                                                                    
                                                                                                    
                                                                                                    
                                                                                                    
                                                                                                    
                                                                                                    
                                                                                                    
                                                                                                    
                                                                                                    
                                                                                                    
                           
<?xpacket end="w"?></metadata>
<defs>
    <style>
      .cls-1 {
        fill: #002e5b;
        fill-rule: evenodd;
      }
    </style>
  </defs>
  <path id="Path_2608" data-name="Path 2608" class="cls-1" d="M1019.12,1522H990.879a0.877,0.877,0,0,0-.879.88v21.21a0.877,0.877,0,0,0,.879.88h9.731v0.29a2.64,2.64,0,0,1-2.638,2.64,0.877,0.877,0,0,0-.879.88v2.34a0.877,0.877,0,0,0,.879.88h14.058a0.881,0.881,0,0,0,.88-0.88v-2.34a0.881,0.881,0,0,0-.88-0.88,2.637,2.637,0,0,1-2.64-2.64v-0.29h9.73a0.875,0.875,0,0,0,.88-0.88v-21.21A0.875,0.875,0,0,0,1019.12,1522Zm-0.88,1.76v14.16H991.758v-14.16h26.482Zm-7.09,25.81v0.67h-12.3v-0.67a4.417,4.417,0,0,0,3.519-4.31v-0.29h5.26v0.29A4.417,4.417,0,0,0,1011.15,1549.57Zm-19.392-6.36v-3.53h26.482v3.53H991.758Z" transform="translate(-990 -1522)"/>
  <path id="Path_2609" data-name="Path 2609" class="cls-1" d="M996.208,1532.66h14.032v2.25a0.884,0.884,0,0,0,1.25.8l1.44-.67,0.25,0.54a0.881,0.881,0,0,0,1.6-.74l-0.25-.54,1.38-.64a0.878,0.878,0,0,0,.21-1.46l-1.45-1.26v-4.43a0.875,0.875,0,0,0-.88-0.88H996.208a0.877,0.877,0,0,0-.879.88v5.27A0.877,0.877,0,0,0,996.208,1532.66Zm17.732-.03-1.94.9v-2.58Zm-16.853-5.24h15.823v2.02l-1.22-1.06a0.878,0.878,0,0,0-1.45.67v1.88H997.087v-3.51Z" transform="translate(-990 -1522)"/>
  <path id="Path_2610" data-name="Path 2610" class="cls-1" d="M1007.64,1534.41H996.214a0.88,0.88,0,0,0,0,1.76h11.426A0.88,0.88,0,1,0,1007.64,1534.41Z" transform="translate(-990 -1522)"/>
  <path class="cls-1" d="M1005,1542.32a0.875,0.875,0,1,1,.88-0.88A0.875,0.875,0,0,1,1005,1542.32Z" transform="translate(-990 -1522)"/>
</svg>
