<svg id="_4366461" data-name="4366461" xmlns="http://www.w3.org/2000/svg" width="32" height="18.75" viewBox="0 0 32 18.75">
  <metadata><?xpacket begin="﻿" id="W5M0MpCehiHzreSzNTczkc9d"?>
<x:xmpmeta xmlns:x="adobe:ns:meta/" x:xmptk="Adobe XMP Core 5.6-c138 79.159824, 2016/09/14-01:09:01        ">
   <rdf:RDF xmlns:rdf="http://www.w3.org/1999/02/22-rdf-syntax-ns#">
      <rdf:Description rdf:about=""/>
   </rdf:RDF>
</x:xmpmeta>
                                                                                                    
                                                                                                    
                                                                                                    
                                                                                                    
                                                                                                    
                                                                                                    
                                                                                                    
                                                                                                    
                                                                                                    
                                                                                                    
                                                                                                    
                                                                                                    
                                                                                                    
                                                                                                    
                                                                                                    
                                                                                                    
                                                                                                    
                                                                                                    
                                                                                                    
                                                                                                    
                           
<?xpacket end="w"?></metadata>
<defs>
    <style>
      .cls-1 {
        fill: #002e5b;
        fill-rule: evenodd;
      }
    </style>
  </defs>
  <path id="Path_2617" data-name="Path 2617" class="cls-1" d="M1290.47,1626.56l-5.63-3.24a0.934,0.934,0,0,0-1.4.81v6.49a0.931,0.931,0,0,0,1.4.81l5.63-3.24A0.947,0.947,0,0,0,1290.47,1626.56Zm-5.16,2.44v-3.25l2.81,1.63Z" transform="translate(-1274 -1618)"/>
  <path id="Path_2618" data-name="Path 2618" class="cls-1" d="M1304.65,1619.97l-6.21,3.08v-4.11a0.939,0.939,0,0,0-.94-0.94h-22.56a0.939,0.939,0,0,0-.94.94v16.87a0.939,0.939,0,0,0,.94.94h22.56a0.939,0.939,0,0,0,.94-0.94v-4.06l6.21,3.03a0.94,0.94,0,0,0,1.35-.84v-13.13A0.937,0.937,0,0,0,1304.65,1619.97Zm-28.78,14.91v-15h20.69v15h-20.69Zm28.25-2.44-5.68-2.77v-4.53l5.68-2.82v10.12Z" transform="translate(-1274 -1618)"/>
</svg>
