<svg id="_4597245" data-name="4597245" xmlns="http://www.w3.org/2000/svg" width="50" height="50" viewBox="0 0 50 50">
  <metadata><?xpacket begin="﻿" id="W5M0MpCehiHzreSzNTczkc9d"?>
<x:xmpmeta xmlns:x="adobe:ns:meta/" x:xmptk="Adobe XMP Core 5.6-c138 79.159824, 2016/09/14-01:09:01        ">
   <rdf:RDF xmlns:rdf="http://www.w3.org/1999/02/22-rdf-syntax-ns#">
      <rdf:Description rdf:about=""/>
   </rdf:RDF>
</x:xmpmeta>
                                                                                                    
                                                                                                    
                                                                                                    
                                                                                                    
                                                                                                    
                                                                                                    
                                                                                                    
                                                                                                    
                                                                                                    
                                                                                                    
                                                                                                    
                                                                                                    
                                                                                                    
                                                                                                    
                                                                                                    
                                                                                                    
                                                                                                    
                                                                                                    
                                                                                                    
                                                                                                    
                           
<?xpacket end="w"?></metadata>
<defs>
    <style>
      .cls-1, .cls-2 {
        fill: #fde428;
      }

      .cls-1 {
        fill-rule: evenodd;
      }
    </style>
  </defs>
  <g>
    <path id="Path_2629" data-name="Path 2629" class="cls-1" d="M1210.86,2166h-5.41a0.975,0.975,0,1,0,0,1.95h5.41a2.2,2.2,0,0,1,2.19,2.19v14.57a2.2,2.2,0,0,1-2.19,2.19h-19.62a2.2,2.2,0,0,1-2.19-2.19v-14.57a2.2,2.2,0,0,1,2.19-2.19h5.42a0.975,0.975,0,0,0,0-1.95h-5.42a4.148,4.148,0,0,0-4.14,4.14v6.41h-19.17a2.928,2.928,0,0,0-2.93,2.93v33.59a2.928,2.928,0,0,0,2.93,2.93h40.23a2.928,2.928,0,0,0,2.93-2.93v-24.22a4.152,4.152,0,0,0,3.91-4.14v-14.57a4.148,4.148,0,0,0-4.14-4.14h0Zm-42.93,12.5h19.17v6.21c0,0.15.01,0.29,0.02,0.43h-20.17v-5.66A0.982,0.982,0,0,1,1167.93,2178.5Zm40.23,35.55h-6.75a9.912,9.912,0,0,0-4.44-5.96,5.692,5.692,0,0,0,1.73-4.09v-2.59a9.67,9.67,0,0,0-19.34,0V2204a5.692,5.692,0,0,0,1.73,4.09,9.912,9.912,0,0,0-4.44,5.96h-8.72a0.982,0.982,0,0,1-.98-0.98v-25.98h20.91a4.122,4.122,0,0,0,3.38,1.76h17.9v24.22A0.982,0.982,0,0,1,1208.16,2214.05ZM1181.31,2204v-2.59a7.715,7.715,0,1,1,15.43,0V2204a3.747,3.747,0,0,1-1.74,3.17,9.495,9.495,0,0,0-1.75-.42,5.776,5.776,0,0,0,1.54-3.92v-1.97a0.982,0.982,0,0,0-.98-0.98,11.535,11.535,0,0,1-6.3-1.82,0.974,0.974,0,0,0-.83-0.12,0.994,0.994,0,0,0-.61.56,1.977,1.977,0,0,1-1.83,1.23,0.973,0.973,0,0,0-.97.98v2.12a5.73,5.73,0,0,0,1.54,3.92,9.3,9.3,0,0,0-1.75.42,3.733,3.733,0,0,1-1.75-3.17h0Zm3.91-1.17v-1.27a3.871,3.871,0,0,0,2.08-1.35,13.221,13.221,0,0,0,5.54,1.59v1.03A3.81,3.81,0,0,1,1185.22,2202.83Zm-6.54,11.22a8,8,0,0,1,7.58-5.46h5.53a7.978,7.978,0,0,1,7.58,5.46h-20.69Z" transform="translate(-1165 -2166)"/>
    <path id="Path_2630" data-name="Path 2630" class="cls-1" d="M1196.34,2174.99v4.94a2.693,2.693,0,0,0,1.37,2.36,2.725,2.725,0,0,0,1.37.38,2.662,2.662,0,0,0,1.36-.38l4.28-2.46a2.735,2.735,0,0,0,0-4.74l-4.28-2.47A2.735,2.735,0,0,0,1196.34,2174.99Zm1.95,0a0.772,0.772,0,0,1,.4-0.68,0.8,0.8,0,0,1,.39-0.1,0.755,0.755,0,0,1,.39.1l4.27,2.47a0.769,0.769,0,0,1,.39.68,0.789,0.789,0,0,1-.39.68l-4.27,2.46a0.744,0.744,0,0,1-.78,0,0.753,0.753,0,0,1-.4-0.67v-4.94h0Z" transform="translate(-1165 -2166)"/>
    <circle class="cls-2" cx="6.25" cy="15.825" r="0.97"/>
    <circle class="cls-2" cx="10.56" cy="15.825" r="0.97"/>
    <circle class="cls-2" cx="14.875" cy="15.825" r="0.965"/>
    <path class="cls-1" d="M1201.05,2167.95a0.975,0.975,0,1,1,.98-0.97A0.973,0.973,0,0,1,1201.05,2167.95Z" transform="translate(-1165 -2166)"/>
  </g>
</svg>
