<svg id="_656444" data-name="656444" xmlns="http://www.w3.org/2000/svg" width="50" height="50" viewBox="0 0 50 50">
  <metadata><?xpacket begin="﻿" id="W5M0MpCehiHzreSzNTczkc9d"?>
<x:xmpmeta xmlns:x="adobe:ns:meta/" x:xmptk="Adobe XMP Core 5.6-c138 79.159824, 2016/09/14-01:09:01        ">
   <rdf:RDF xmlns:rdf="http://www.w3.org/1999/02/22-rdf-syntax-ns#">
      <rdf:Description rdf:about=""/>
   </rdf:RDF>
</x:xmpmeta>
                                                                                                    
                                                                                                    
                                                                                                    
                                                                                                    
                                                                                                    
                                                                                                    
                                                                                                    
                                                                                                    
                                                                                                    
                                                                                                    
                                                                                                    
                                                                                                    
                                                                                                    
                                                                                                    
                                                                                                    
                                                                                                    
                                                                                                    
                                                                                                    
                                                                                                    
                                                                                                    
                           
<?xpacket end="w"?></metadata>
<defs>
    <style>
      .cls-1 {
        fill: #fde428;
        fill-rule: evenodd;
      }
    </style>
  </defs>
  <path id="Path_2621" data-name="Path 2621" class="cls-1" d="M450.117,2175.25h-4.1v-4.11a4.888,4.888,0,0,0-4.883-4.88h-31.25a4.887,4.887,0,0,0-4.883,4.88v31.25a4.889,4.889,0,0,0,4.883,4.89h4.1v4.1a4.888,4.888,0,0,0,4.883,4.88h31.25a4.887,4.887,0,0,0,4.883-4.88v-31.25A4.887,4.887,0,0,0,450.117,2175.25Zm-40.234,30.07a2.93,2.93,0,0,1-2.93-2.93v-31.25a2.937,2.937,0,0,1,2.93-2.93h31.25a2.936,2.936,0,0,1,2.929,2.93v31.25a2.93,2.93,0,0,1-2.929,2.93h-31.25Zm43.164,6.06a2.937,2.937,0,0,1-2.93,2.93h-31.25a2.936,2.936,0,0,1-2.929-2.93v-4.1h25.195a4.89,4.89,0,0,0,4.883-4.89V2177.2h4.1a2.93,2.93,0,0,1,2.93,2.93v31.25Z" transform="translate(-405 -2166.25)"/>
  <path id="Path_2622" data-name="Path 2622" class="cls-1" d="M418.891,2210.89h-0.026a0.975,0.975,0,1,0,0,1.95h0.026A0.975,0.975,0,1,0,418.891,2210.89Z" transform="translate(-405 -2166.25)"/>
  <path id="Path_2623" data-name="Path 2623" class="cls-1" d="M450.119,2210.89H421.7a0.975,0.975,0,1,0,0,1.95h28.422A0.975,0.975,0,1,0,450.119,2210.89Z" transform="translate(-405 -2166.25)"/>
  <path id="Path_2624" data-name="Path 2624" class="cls-1" d="M415.745,2169.68h-0.026a0.975,0.975,0,1,0,0,1.95h0.026A0.975,0.975,0,1,0,415.745,2169.68Z" transform="translate(-405 -2166.25)"/>
  <path id="Path_2625" data-name="Path 2625" class="cls-1" d="M412.913,2169.68h-3.03a0.975,0.975,0,1,0,0,1.95h3.03A0.975,0.975,0,1,0,412.913,2169.68Z" transform="translate(-405 -2166.25)"/>
  <path id="Path_2626" data-name="Path 2626" class="cls-1" d="M433.66,2185.9a3.328,3.328,0,0,0-1.554-2.02l-4.778-2.76a0.982,0.982,0,0,0-.144-0.08l-4.765-2.76a3.343,3.343,0,0,0-5.18,2.8v11.38c0,0.04,0,.08.007,0.12a3.332,3.332,0,0,0,3.338,3.22,3.274,3.274,0,0,0,1.669-.45l4.931-2.84,0.08-.06,4.807-2.77A3.337,3.337,0,0,0,433.66,2185.9Zm-2.021,1.56a1.357,1.357,0,0,1-.524.52H431.1l-4.9,2.83c-0.028.02-.055,0.03-0.081,0.05l-4.849,2.8a1.377,1.377,0,0,1-1.891-.5,1.369,1.369,0,0,1-.186-0.69,0.951,0.951,0,0,0,0-.1v-11.29h0a1.389,1.389,0,0,1,1.389-1.39,1.411,1.411,0,0,1,.775.23,0.189,0.189,0,0,0,.058.04l4.794,2.77c0.024,0.01.047,0.03,0.07,0.04l0.049,0.03,4.8,2.78A1.373,1.373,0,0,1,431.639,2187.46Z" transform="translate(-405 -2166.25)"/>
</svg>
