<svg id="_901885" data-name="901885" xmlns="http://www.w3.org/2000/svg" width="50" height="49.91" viewBox="0 0 50 49.91">
  <metadata><?xpacket begin="﻿" id="W5M0MpCehiHzreSzNTczkc9d"?>
<x:xmpmeta xmlns:x="adobe:ns:meta/" x:xmptk="Adobe XMP Core 5.6-c138 79.159824, 2016/09/14-01:09:01        ">
   <rdf:RDF xmlns:rdf="http://www.w3.org/1999/02/22-rdf-syntax-ns#">
      <rdf:Description rdf:about=""/>
   </rdf:RDF>
</x:xmpmeta>
                                                                                                    
                                                                                                    
                                                                                                    
                                                                                                    
                                                                                                    
                                                                                                    
                                                                                                    
                                                                                                    
                                                                                                    
                                                                                                    
                                                                                                    
                                                                                                    
                                                                                                    
                                                                                                    
                                                                                                    
                                                                                                    
                                                                                                    
                                                                                                    
                                                                                                    
                                                                                                    
                           
<?xpacket end="w"?></metadata>
<defs>
    <style>
      .cls-1 {
        fill: #fde428;
        fill-rule: evenodd;
      }
    </style>
  </defs>
  <g>
    <path class="cls-1" d="M820.909,2199.56h5.011v1.67h-5.011v-1.67Z" transform="translate(-785 -2166.25)"/>
    <path class="cls-1" d="M814.228,2199.56h5.011v1.67h-5.011v-1.67Z" transform="translate(-785 -2166.25)"/>
    <path class="cls-1" d="M807.548,2199.56h5.01v1.67h-5.01v-1.67Z" transform="translate(-785 -2166.25)"/>
    <path id="Path_2627" data-name="Path 2627" class="cls-1" d="M834.26,2183.53L817.736,2167a2.515,2.515,0,0,0-1.776-.74h-0.007a2.479,2.479,0,0,0-1.761.74l-17.529,17.53h-9.158a2.5,2.5,0,0,0-2.5,2.5v23.38a2.505,2.505,0,0,0,2.5,2.51h12.373l2.492,2.49a2.473,2.473,0,0,0,1.775.74h0.007a2.44,2.44,0,0,0,1.762-.74l2.5-2.49H827.59a2.5,2.5,0,0,0,2.5-2.51v-19.17l4.161-4.17a2.462,2.462,0,0,0,.744-1.76A2.488,2.488,0,0,0,834.26,2183.53Zm-10.623-8.27-9.262,9.27h-7.091l12.807-12.81Zm-8.263-7.08a0.827,0.827,0,0,1,1.165-.02,0.243,0.243,0,0,0,.014.02l2.357,2.36-13.989,13.99h-5.9Zm-10.642,46.06a0.809,0.809,0,0,1-.585.25,0.829,0.829,0,0,1-.594-0.25l-1.312-1.32h3.808Zm23.693-3.83a0.834,0.834,0,0,1-.835.84H787.505a0.834,0.834,0,0,1-.835-0.84v-11.69h41.755v11.69Zm0-13.36H786.67v-5.01h41.755v5.01Zm0-6.68H786.67v-3.34a0.832,0.832,0,0,1,.835-0.83H827.59a0.832,0.832,0,0,1,.835.83v3.34Zm4.654-4.48h0l-2.984,2.98v-1.84a2.5,2.5,0,0,0-2.5-2.5H816.734l8.08-8.08,8.262,8.26a0.813,0.813,0,0,1,.25.59A0.822,0.822,0,0,1,833.079,2185.89Z" transform="translate(-785 -2166.25)"/>
    <path id="Path_2628" data-name="Path 2628" class="cls-1" d="M793.009,2209.6a2.967,2.967,0,0,0,.342-0.34,3.313,3.313,0,0,0,4.4.57,3.408,3.408,0,0,0,1.45-2.76,3.344,3.344,0,0,0-3.341-3.34,2.729,2.729,0,0,0-.494.04l-0.022.01h-0.024a6.075,6.075,0,0,1-6.677.77A3.339,3.339,0,1,0,793.009,2209.6Zm2.636-4.18a1.492,1.492,0,0,1,.211-0.02,1.672,1.672,0,0,1,1.671,1.67,1.622,1.622,0,0,1-.329.98c-0.03.04-.053,0.09-0.087,0.13-0.006.01-.015,0.01-0.021,0.02a1.653,1.653,0,0,1-2.875-1.15A1.676,1.676,0,0,1,795.645,2205.42Zm-4.8-.02a1.67,1.67,0,1,1-1.671,1.67A1.672,1.672,0,0,1,790.846,2205.4Z" transform="translate(-785 -2166.25)"/>
  </g>
</svg>
