<svg xmlns="http://www.w3.org/2000/svg" width="49.969" height="50" viewBox="0 0 49.969 50">
  <metadata><?xpacket begin="﻿" id="W5M0MpCehiHzreSzNTczkc9d"?>
<x:xmpmeta xmlns:x="adobe:ns:meta/" x:xmptk="Adobe XMP Core 5.6-c138 79.159824, 2016/09/14-01:09:01        ">
   <rdf:RDF xmlns:rdf="http://www.w3.org/1999/02/22-rdf-syntax-ns#">
      <rdf:Description rdf:about=""/>
   </rdf:RDF>
</x:xmpmeta>
                                                                                                    
                                                                                                    
                                                                                                    
                                                                                                    
                                                                                                    
                                                                                                    
                                                                                                    
                                                                                                    
                                                                                                    
                                                                                                    
                                                                                                    
                                                                                                    
                                                                                                    
                                                                                                    
                                                                                                    
                                                                                                    
                                                                                                    
                                                                                                    
                                                                                                    
                                                                                                    
                           
<?xpacket end="w"?></metadata>
<defs>
    <style>
      .cls-1 {
        fill: #002e5b;
        fill-rule: evenodd;
      }
    </style>
  </defs>
  <path id="Path_2538" data-name="Path 2538" class="cls-1" d="M986.094,2830.71a10.246,10.246,0,0,0-3.813-15.41v-9.02L969.7,2793.7H944v50h38.281v-9.87a10.521,10.521,0,0,0,1.74-1.05l7.863,7.95,2.083-2.06Zm-6.742,10.06H946.93v-44.14h20.7v11.72h11.719v6.07a10.25,10.25,0,1,0,0,20.29v6.06Zm-8.79-42.07,6.718,6.72h-6.718v-6.72h0Zm12.5,31.04a7.325,7.325,0,1,1,0-10.36A7.325,7.325,0,0,1,983.066,2829.74Z" transform="translate(-944 -2793.69)"/>
  <path class="cls-1" d="M950,2811.7h21v3H950v-3Z" transform="translate(-944 -2793.69)"/>
  <path class="cls-1" d="M950,2817.7h15v3H950v-3Z" transform="translate(-944 -2793.69)"/>
  <path class="cls-1" d="M950,2829.7h15v3H950v-3Z" transform="translate(-944 -2793.69)"/>
  <path class="cls-1" d="M950,2823.7h15v3H950v-3Z" transform="translate(-944 -2793.69)"/>
</svg>
