<svg xmlns="http://www.w3.org/2000/svg" width="49" height="49" viewBox="0 0 49 49">
  <metadata><?xpacket begin="﻿" id="W5M0MpCehiHzreSzNTczkc9d"?>
<x:xmpmeta xmlns:x="adobe:ns:meta/" x:xmptk="Adobe XMP Core 5.6-c138 79.159824, 2016/09/14-01:09:01        ">
   <rdf:RDF xmlns:rdf="http://www.w3.org/1999/02/22-rdf-syntax-ns#">
      <rdf:Description rdf:about=""/>
   </rdf:RDF>
</x:xmpmeta>
                                                                                                    
                                                                                                    
                                                                                                    
                                                                                                    
                                                                                                    
                                                                                                    
                                                                                                    
                                                                                                    
                                                                                                    
                                                                                                    
                                                                                                    
                                                                                                    
                                                                                                    
                                                                                                    
                                                                                                    
                                                                                                    
                                                                                                    
                                                                                                    
                                                                                                    
                                                                                                    
                           
<?xpacket end="w"?></metadata>
<defs>
    <style>
      .cls-1 {
        fill: #002e5b;
        fill-rule: evenodd;
      }
    </style>
  </defs>
  <path id="Path_2539" data-name="Path 2539" class="cls-1" d="M603.129,2805.28v-2.87H585.56a4.318,4.318,0,0,0-2.625-2.62v-6.09h-2.871v6.09a4.317,4.317,0,0,0-2.624,2.62H559.871v2.87h3.589L557,2820.79v0.28a7.187,7.187,0,0,0,7.178,7.18h2.871a7.187,7.187,0,0,0,7.178-7.18v-0.28l-6.46-15.51h9.673a4.357,4.357,0,0,0,2.624,2.63v20.58a103.266,103.266,0,0,0-11.484,12.78v1.43h25.84v-1.43a103.161,103.161,0,0,0-11.485-12.78v-20.58a4.359,4.359,0,0,0,2.625-2.63h9.673l-6.46,15.51v0.28a7.187,7.187,0,0,0,7.178,7.18h2.871a7.187,7.187,0,0,0,7.178-7.18v-0.28l-6.46-15.51h3.589Zm-37.516,2.3,5.025,12.06H560.589Zm1.436,17.8h-2.871a4.313,4.313,0,0,1-4.06-2.87h10.99A4.313,4.313,0,0,1,567.049,2825.38Zm30.338-17.8,5.024,12.06H592.362Zm1.435,17.8h-2.871a4.315,4.315,0,0,1-4.06-2.87h10.991A4.314,4.314,0,0,1,598.822,2825.38Zm-7.519,14.45H571.7a4.315,4.315,0,0,1,4.061-2.87h11.484A4.315,4.315,0,0,1,591.3,2839.83Zm-5.743-5.74h-8.12A4.307,4.307,0,0,1,585.56,2834.09Zm-4.06-28.81a1.435,1.435,0,1,1,1.435-1.43,1.434,1.434,0,0,1-1.435,1.43h0Z" transform="translate(-557 -2793.69)"/>
</svg>
