<svg xmlns="http://www.w3.org/2000/svg" width="46" height="54.78" viewBox="0 0 46 54.78">
  <metadata><?xpacket begin="﻿" id="W5M0MpCehiHzreSzNTczkc9d"?>
<x:xmpmeta xmlns:x="adobe:ns:meta/" x:xmptk="Adobe XMP Core 5.6-c138 79.159824, 2016/09/14-01:09:01        ">
   <rdf:RDF xmlns:rdf="http://www.w3.org/1999/02/22-rdf-syntax-ns#">
      <rdf:Description rdf:about=""/>
   </rdf:RDF>
</x:xmpmeta>
                                                                                                    
                                                                                                    
                                                                                                    
                                                                                                    
                                                                                                    
                                                                                                    
                                                                                                    
                                                                                                    
                                                                                                    
                                                                                                    
                                                                                                    
                                                                                                    
                                                                                                    
                                                                                                    
                                                                                                    
                                                                                                    
                                                                                                    
                                                                                                    
                                                                                                    
                                                                                                    
                           
<?xpacket end="w"?></metadata>
<defs>
    <style>
      .cls-1 {
        fill: #002e5b;
        fill-rule: evenodd;
      }
    </style>
  </defs>
  <path id="Path_2535" data-name="Path 2535" class="cls-1" d="M1342,2796.7l-23,4.6v31.46c0,6.75,4.03,12.14,11.64,15.58a40.681,40.681,0,0,0,11.19,3.12l0.17,0.01,0.17-.01a40.681,40.681,0,0,0,11.19-3.12c7.61-3.44,11.64-8.83,11.64-15.58V2801.3Zm19.79,36.06c0,5.46-3.26,9.71-9.69,12.63a19.244,19.244,0,0,1-20.14.03c-6.47-2.93-9.75-7.18-9.75-12.66v-28.83l19.79-3.96,19.79,3.96v28.83Z" transform="translate(-1319 -2796.69)"/>
  <path id="Path_2536" data-name="Path 2536" class="cls-1" d="M1334.35,2815.21a7.548,7.548,0,0,0,2.79,5.84,8.744,8.744,0,0,0-3.89,7.26v9.88h17.5v-9.88a8.744,8.744,0,0,0-3.89-7.26,7.6,7.6,0,1,0-12.51-5.84h0Zm13.19,13.1v6.67h-11.08v-6.67A5.54,5.54,0,0,1,1347.54,2828.31Zm-1.1-13.1a4.441,4.441,0,1,1-4.44-4.37A4.407,4.407,0,0,1,1346.44,2815.21Z" transform="translate(-1319 -2796.69)"/>
  <path id="Path_2537" data-name="Path 2537" class="cls-1" d="M1340.4,2827.27h3.2v3.21h-3.2v-3.21Z" transform="translate(-1319 -2796.69)"/>
</svg>
